<?xml version="1.0" encoding="utf-8"?>
<!-- Generator: Adobe Illustrator 16.0.0, SVG Export Plug-In . SVG Version: 6.00 Build 0)  -->
<!DOCTYPE svg PUBLIC "-//W3C//DTD SVG 1.1//EN" "http://www.w3.org/Graphics/SVG/1.1/DTD/svg11.dtd">
<svg version="1.1" id="_x32_" xmlns="http://www.w3.org/2000/svg" xmlns:xlink="http://www.w3.org/1999/xlink" x="0px" y="0px"
	 width="512px" height="512px" viewBox="0 0 512 512" enable-background="new 0 0 512 512" xml:space="preserve">
<g>
	<path fill="#F48FB1" d="M466.656,0H189.359C164.313,0,144,20.313,144,45.344v421.313C144,491.688,164.313,512,189.359,512h277.297
		C491.703,512,512,491.688,512,466.656V45.344C512,20.313,491.703,0,466.656,0z M488,466.656c0,11.766-9.578,21.344-21.344,21.344
		H189.359C177.578,488,168,478.422,168,466.656V45.344C168,33.578,177.578,24,189.359,24h277.297C478.422,24,488,33.578,488,45.344
		V466.656z"/>
	<rect x="208" y="384" fill="#F48FB1" width="48" height="48"/>
	<rect x="208" y="304" fill="#F48FB1" width="48" height="48"/>
	<rect x="208" y="224" fill="#F48FB1" width="48" height="48"/>
	<rect x="304" y="384" fill="#F48FB1" width="48" height="48"/>
	<rect x="304" y="304" fill="#F48FB1" width="48" height="48"/>
	<rect x="304" y="224" fill="#F48FB1" width="48" height="48"/>
	<rect x="400" y="304" fill="#F48FB1" width="48" height="128"/>
	<rect x="400" y="224" fill="#F48FB1" width="48" height="48"/>
	<rect x="208" y="80" fill="#F48FB1" width="240" height="80"/>
</g>
<rect fill="none" width="143.5" height="512"/>
<text transform="matrix(1 0 0 1 6.75 114.4004)"><tspan x="0" y="0" fill="#F48FB1" font-family="'KozGoPr6N-Regular-90ms-RKSJ-H'" font-size="130">マ</tspan><tspan x="0" y="125" fill="#F48FB1" font-family="'KozGoPr6N-Regular-90ms-RKSJ-H'" font-size="130">ギ</tspan><tspan x="0" y="250" fill="#F48FB1" font-family="'KozGoPr6N-Regular-90ms-RKSJ-H'" font-size="130">レ</tspan><tspan x="0" y="375" fill="#F48FB1" font-family="'KozGoPr6N-Regular-90ms-RKSJ-H'" font-size="130">コ</tspan></text>
</svg>
